<svg version="1" xmlns="http://www.w3.org/2000/svg" width="294.667" height="294.667" viewBox="0 0 221.000000 221.000000"><path d="M58.7 46.6c-.4.4-.7 22.4-.7 48.9 0 36.1-.3 48.4-1.2 49.3-.7.7-3.1 1.2-5.5 1.2H47v26h16.6c18.5 0 22.3-.9 24.4-6 .8-2 1.1-11.9.8-34.4-.2-17.4-.2-31.6-.1-31.6 0 0 1.8 3 3.8 6.7 2 3.8 12.2 20 22.7 36l19 29.3H162l.2-49.3.3-49.2 3-.3c8-.7 7.5.2 7.5-14.3V45.8l-17.3.4c-19 .3-21.7 1.1-23.8 6.6-.7 1.7-.9 14.1-.7 34 .2 17.1.2 31.2.1 31.2s-2.4-3.9-5.1-8.8c-2.7-4.8-12.8-20.9-22.5-35.7l-17.5-27-13.4-.3c-7.4-.1-13.7.1-14.1.4z"/></svg>